<svg id="Ebene_1" data-name="Ebene 1" xmlns="http://www.w3.org/2000/svg" viewBox="0 0 271.3 54.71"><path d="M488.77,831.57a1.09,1.09,0,0,0-.65-1.1,8.78,8.78,0,0,0-3.1-.69,8.84,8.84,0,0,0,.68-1,9,9,0,0,0,.32-8,1.08,1.08,0,0,0-1.11-.62,9,9,0,0,0-6.67,4.53,9.34,9.34,0,0,0-.65,1.49,9.1,9.1,0,0,0-3.1-2.57,1.08,1.08,0,0,0-1.26.22,9,9,0,0,0-2.33,7.71h0a7.89,7.89,0,0,0-1-.36,1.08,1.08,0,0,0-1.2.43,9,9,0,0,0-.91,1.74l-.21,0a8,8,0,0,0-.84-.09,9,9,0,0,0,1.74-6.76,1.08,1.08,0,0,0-.9-.9,9.06,9.06,0,0,0-5.12.75,8.58,8.58,0,0,0,.11-1.35,9,9,0,0,0-3.63-7.19,1.07,1.07,0,0,0-1.27,0,9,9,0,0,0-3.63,7.19,10,10,0,0,0,.1,1.35,9,9,0,0,0-5.11-.75,1.07,1.07,0,0,0-.9.9,9,9,0,0,0,1.74,6.76,8,8,0,0,0-.84.09,1.06,1.06,0,0,0-.9.9,9,9,0,0,0,1.74,6.75q-.42,0-.84.09a1.06,1.06,0,0,0-.9.9,9,9,0,0,0,1.74,6.76,8,8,0,0,0-.84.08,1.07,1.07,0,0,0-.9.9,9.12,9.12,0,0,0,0,2.76,1.07,1.07,0,1,0,2.11-.34,7.79,7.79,0,0,1-.08-1.28,6.8,6.8,0,0,1,7,7,7.33,7.33,0,0,1-1.32-.09,1.06,1.06,0,0,0-1.23.88,1.08,1.08,0,0,0,.88,1.23,9.23,9.23,0,0,0,1.48.12h.26v11.25a1.07,1.07,0,1,0,2.14,0V859.86h.25a9,9,0,0,0,6-2.29,8.94,8.94,0,0,0,4.09,1h.05a91.94,91.94,0,0,0-.86,12.54,1.07,1.07,0,1,0,2.13,0,90.06,90.06,0,0,1,.85-12.34,9,9,0,0,0,5,1.56c.26,0,.52,0,.78,0a8.94,8.94,0,0,0,6.84-4.24,1.07,1.07,0,0,0-.11-1.27,9,9,0,0,0-3.39-2.38,9,9,0,0,0,3.86-5.33,1.07,1.07,0,0,0-.48-1.17,8.51,8.51,0,0,0-1.42-.7,9,9,0,0,0,3.68-5.72,1.08,1.08,0,0,0-.56-1.14,7.15,7.15,0,0,0-1-.45,9,9,0,0,0,3.65-6.32ZM457.2,850a6.8,6.8,0,0,1-7-7,6.8,6.8,0,0,1,7,7Zm0-7.75a6.8,6.8,0,0,1-7-7,6.8,6.8,0,0,1,7,7Zm0-7.74a6.8,6.8,0,0,1-7-7,6.8,6.8,0,0,1,7,7Zm1.14-4.69a6.82,6.82,0,0,1,0-9.88,6.79,6.79,0,0,1,0,9.88Zm6.15,25.93a6.75,6.75,0,0,1-5,2,6.8,6.8,0,0,1,7-7A6.78,6.78,0,0,1,464.49,855.74Zm0-7.74a6.78,6.78,0,0,1-5,2,6.8,6.8,0,0,1,7-7,6.78,6.78,0,0,1-2,5Zm0-7.75a6.71,6.71,0,0,1-5,2,6.8,6.8,0,0,1,7-7,6.76,6.76,0,0,1-2,5Zm0-7.74a6.71,6.71,0,0,1-5,2,6.8,6.8,0,0,1,7-7A6.77,6.77,0,0,1,464.49,832.51Zm15.62-6.87a6.75,6.75,0,0,1,4.26-3.29,6.81,6.81,0,0,1-4.8,8.64,6.73,6.73,0,0,1,.54-5.35Zm-5.86.21a6.71,6.71,0,0,1,2.95,4.5,6.79,6.79,0,0,1-1.24,5.23,6.8,6.8,0,0,1-1.71-9.73Zm-4.73,30.58a7,7,0,0,1-2.42-.53,8.83,8.83,0,0,0,1.41-3.65A6.66,6.66,0,0,1,469.52,856.43Zm1.67-6.22a6.74,6.74,0,0,1-3.55-3,9,9,0,0,0,.88-5.38l0-.12a6.81,6.81,0,0,1,2.7,8.47Zm-1.44-11.46a6.67,6.67,0,0,1,.34-5.31,6.73,6.73,0,0,1,3.27,9.22A6.66,6.66,0,0,1,469.75,838.75Zm12.53,16.86a6.82,6.82,0,0,1-9.85.87,6.82,6.82,0,0,1,9.85-.87Zm-3.45-4.45a6.75,6.75,0,0,1-5.38-.1,6.69,6.69,0,0,1,3.78-3.83h0a6.71,6.71,0,0,1,5.38.1,6.75,6.75,0,0,1-3.78,3.83ZM480.9,844a2.93,2.93,0,1,1,3.51-4.08A6.7,6.7,0,0,1,480.9,844Zm2.43-7.47a2.93,2.93,0,1,1,3.18-4.35,6.77,6.77,0,0,1-3.18,4.35Z" transform="translate(-448.07 -817.47)"/><path d="M451.44,857.54a1.09,1.09,0,0,1-1.07-1.07,1.09,1.09,0,0,1,.32-.76,1.06,1.06,0,0,1,.75-.31,1.06,1.06,0,0,1,1.07,1.07,1.06,1.06,0,0,1-.31.75A1.09,1.09,0,0,1,451.44,857.54Z" transform="translate(-448.07 -817.47)"/><path d="M502.81,863.74V860.2l3.65-.69v-25l-3.65-.69v-3.56h14.68c3.75,0,6.68.77,8.78,2.29a7.87,7.87,0,0,1,3.16,6.83,6.72,6.72,0,0,1-1.31,4.08,7.75,7.75,0,0,1-3.63,2.68,7.5,7.5,0,0,1,5.51,4.37,8.87,8.87,0,0,1,.72,3.6,8.57,8.57,0,0,1-3.09,7.15q-3.09,2.44-8.6,2.45Zm9.44-19.34h5.88a6.1,6.1,0,0,0,4-1.24,4.31,4.31,0,0,0,1.47-3.47,4.39,4.39,0,0,0-1.56-3.71,7.37,7.37,0,0,0-4.59-1.21h-5.24Zm0,14.88H519A6.47,6.47,0,0,0,523.4,858a4.77,4.77,0,0,0,1.53-3.82,7.15,7.15,0,0,0-.57-3,4.21,4.21,0,0,0-1.75-1.91,6.07,6.07,0,0,0-3-.67h-7.35Z" transform="translate(-448.07 -817.47)"/><path d="M541.72,864.22a8.37,8.37,0,0,1-5.9-2,7,7,0,0,1-2.11-5.38,6.79,6.79,0,0,1,1.28-4.11,8.39,8.39,0,0,1,3.77-2.77,16.24,16.24,0,0,1,6-1h3.79v-2.09a4.22,4.22,0,0,0-1.19-3.14,4.68,4.68,0,0,0-3.43-1.17,7.42,7.42,0,0,0-2.27.31,5.87,5.87,0,0,0-1.77.88l-.53,3.35h-4.25l0-6.13a16.11,16.11,0,0,1,4.09-1.89,16.7,16.7,0,0,1,5-.71,11.45,11.45,0,0,1,7.45,2.22,7.71,7.71,0,0,1,2.72,6.35v11c0,.34,0,.67,0,1s0,.63,0,.94l2.53.32v3.54h-7.56q-.23-.81-.42-1.56a11.62,11.62,0,0,1-.29-1.52,10.42,10.42,0,0,1-3,2.56A7.82,7.82,0,0,1,541.72,864.22Zm1.31-4.48a6.82,6.82,0,0,0,3.26-.81,5.89,5.89,0,0,0,2.28-2.06v-4.16h-3.86a5.61,5.61,0,0,0-3.92,1.21,3.69,3.69,0,0,0-1.32,2.81,2.77,2.77,0,0,0,.92,2.23A4,4,0,0,0,543,859.74Z" transform="translate(-448.07 -817.47)"/><path d="M559.48,863.74V860.2l3.47-.69V832.15l-3.68-.68V827.9h9.44v31.61l3.24.69v3.54Zm8.68-7-2.57-3.68,10.79-10.24.07-.09-2.59-.35v-3.54h12v3.56l-3.2.74Zm7.19,7v-3.42l2.18-.4-.07-.09-5.88-7.76,3.47-4.07L584,859.56l3.3.64v3.54Z" transform="translate(-448.07 -817.47)"/><path d="M600.11,864.22a11.61,11.61,0,0,1-6.12-1.57,10.63,10.63,0,0,1-4-4.36,13.61,13.61,0,0,1-1.44-6.36v-1a14.35,14.35,0,0,1,1.41-6.47,11.16,11.16,0,0,1,3.9-4.46,10.08,10.08,0,0,1,5.65-1.62,11,11,0,0,1,5.66,1.36,8.69,8.69,0,0,1,3.46,3.85,14,14,0,0,1,1.17,6v3.31H594.51l0,.11a8.77,8.77,0,0,0,.82,3.47,5.72,5.72,0,0,0,2.06,2.39,5.92,5.92,0,0,0,3.28.87,11.49,11.49,0,0,0,3.67-.55,11.63,11.63,0,0,0,3.06-1.56l1.81,3.63a12.65,12.65,0,0,1-3.74,2.09A15.09,15.09,0,0,1,600.11,864.22Zm-5.51-15.37h9.62v-.59a7.62,7.62,0,0,0-.49-2.86,4,4,0,0,0-1.54-1.92,4.72,4.72,0,0,0-2.65-.69,4,4,0,0,0-2.46.78,5.44,5.44,0,0,0-1.69,2.12,10.35,10.35,0,0,0-.86,3Z" transform="translate(-448.07 -817.47)"/><path d="M613.29,863.74V860.2l3.45-.69V843.13l-3.63-.69v-3.56h9l.3,3.13,0,.5a8.34,8.34,0,0,1,2.43-3,5.54,5.54,0,0,1,3.36-1.06,8.37,8.37,0,0,1,1.37.12,10.67,10.67,0,0,1,1.18.25l-.67,5.35-3.23-.18a4.07,4.07,0,0,0-2.61.62,5.66,5.66,0,0,0-1.71,2v13l3.44.69v3.54Z" transform="translate(-448.07 -817.47)"/><path d="M646,864.22a22.71,22.71,0,0,1-6.37-.85,19.06,19.06,0,0,1-5.72-2.83v-7.69h4.48l.74,5a9.94,9.94,0,0,0,3,1.41,13.57,13.57,0,0,0,3.87.52,8.88,8.88,0,0,0,3.43-.58,4.74,4.74,0,0,0,2.12-1.64,4.3,4.3,0,0,0,.74-2.51,4.44,4.44,0,0,0-.64-2.36,5.54,5.54,0,0,0-2.14-1.85,18.67,18.67,0,0,0-4-1.51,28.39,28.39,0,0,1-6.26-2.39,10.43,10.43,0,0,1-3.79-3.3,8.6,8.6,0,0,1,.18-9.31,10,10,0,0,1,4.06-3.26,14.61,14.61,0,0,1,6-1.22,19.07,19.07,0,0,1,6.58,1,15.65,15.65,0,0,1,4.84,2.64v7.19h-4.39l-.83-4.69a8.81,8.81,0,0,0-2.44-1.13,11.79,11.79,0,0,0-3.55-.47,7.76,7.76,0,0,0-3.08.57,4.89,4.89,0,0,0-2.09,1.62A4.11,4.11,0,0,0,640,839a3.71,3.71,0,0,0,.67,2.21,5.67,5.67,0,0,0,2.23,1.71,27.48,27.48,0,0,0,4.22,1.55,19.61,19.61,0,0,1,8.25,4,8.38,8.38,0,0,1,2.8,6.5,8.05,8.05,0,0,1-1.5,4.85,9.75,9.75,0,0,1-4.23,3.23A16.24,16.24,0,0,1,646,864.22Z" transform="translate(-448.07 -817.47)"/><path d="M672.92,864.22a11.36,11.36,0,0,1-6.15-1.61,10.48,10.48,0,0,1-3.95-4.47,14.94,14.94,0,0,1-1.38-6.58v-.48a14.87,14.87,0,0,1,1.38-6.55,10.65,10.65,0,0,1,3.95-4.47,11.14,11.14,0,0,1,6.11-1.64A11.28,11.28,0,0,1,679,840a10.6,10.6,0,0,1,4,4.47,14.9,14.9,0,0,1,1.38,6.57v.48a14.94,14.94,0,0,1-1.38,6.58,10.52,10.52,0,0,1-3.94,4.47A11.26,11.26,0,0,1,672.92,864.22Zm0-4.46a4.76,4.76,0,0,0,3.18-1,6.27,6.27,0,0,0,1.88-2.9,13.46,13.46,0,0,0,.62-4.26v-.48a13.36,13.36,0,0,0-.62-4.23,6.41,6.41,0,0,0-1.89-2.89,4.85,4.85,0,0,0-3.21-1.06,4.8,4.8,0,0,0-3.17,1.06,6.31,6.31,0,0,0-1.88,2.89,13.67,13.67,0,0,0-.6,4.23v.48a13.78,13.78,0,0,0,.6,4.26,6.13,6.13,0,0,0,1.89,2.9A4.87,4.87,0,0,0,672.92,859.76Z" transform="translate(-448.07 -817.47)"/><path d="M687.74,863.74V860.2l3.47-.69V843h-3.79v-4.14h3.79V836a8.47,8.47,0,0,1,2.26-6.32,8.66,8.66,0,0,1,6.33-2.23,14.81,14.81,0,0,1,2,.15,18.18,18.18,0,0,1,2,.38l-.57,4.34a11.07,11.07,0,0,0-1.19-.19,11.32,11.32,0,0,0-1.41-.08,3.47,3.47,0,0,0-2.74,1A4.23,4.23,0,0,0,697,836v2.91h5.56V843H697v16.49l4.34.69v3.54Z" transform="translate(-448.07 -817.47)"/><path d="M714.57,864.17a6.63,6.63,0,0,1-4.94-1.78c-1.18-1.18-1.77-3.08-1.77-5.68V843h-3.63v-4.14h3.63v-6h5.76v6h4.92V843h-4.92v13.69a3.36,3.36,0,0,0,.66,2.31,2.29,2.29,0,0,0,1.78.72,11.16,11.16,0,0,0,1.44-.11c.52-.08,1-.16,1.27-.23l.6,4.06a19.12,19.12,0,0,1-2.31.51A15.64,15.64,0,0,1,714.57,864.17Z" transform="translate(-448.07 -817.47)"/></svg>